<?xml version="1.0" encoding="UTF-8" standalone="no"?>
<svg
   xmlns:dc="http://purl.org/dc/elements/1.1/"
   xmlns:cc="http://creativecommons.org/ns#"
   xmlns:rdf="http://www.w3.org/1999/02/22-rdf-syntax-ns#"
   xmlns:svg="http://www.w3.org/2000/svg"
   xmlns="http://www.w3.org/2000/svg"
   xmlns:sodipodi="http://sodipodi.sourceforge.net/DTD/sodipodi-0.dtd"
   xmlns:inkscape="http://www.inkscape.org/namespaces/inkscape"
   width="48"
   height="48"
   viewBox="0 0 48 48"
   version="1.1"
   id="svg6"
   sodipodi:docname="3d-icon.svg"
   inkscape:version="0.92.3 (2405546, 2018-03-11)">
  <metadata
     id="metadata12">
    <rdf:RDF>
      <cc:Work
         rdf:about="">
        <dc:format>image/svg+xml</dc:format>
        <dc:type
           rdf:resource="http://purl.org/dc/dcmitype/StillImage" />
        <dc:title />
      </cc:Work>
    </rdf:RDF>
  </metadata>
  <defs
     id="defs10" />
  <sodipodi:namedview
     pagecolor="#ffffff"
     bordercolor="#666666"
     borderopacity="1"
     objecttolerance="10"
     gridtolerance="10"
     guidetolerance="10"
     inkscape:pageopacity="0"
     inkscape:pageshadow="2"
     inkscape:window-width="1920"
     inkscape:window-height="1017"
     id="namedview8"
     showgrid="false"
     inkscape:zoom="9.8333333"
     inkscape:cx="-4.5254238"
     inkscape:cy="12"
     inkscape:window-x="-8"
     inkscape:window-y="-8"
     inkscape:window-maximized="1"
     inkscape:current-layer="svg6" />
  <path
     d="M 0,0 H 48 V 48 H 0 Z"
     id="path2"
     inkscape:connector-curvature="0"
     style="fill:none;stroke-width:2" />
  <path
     d="M 15.04,42.96 C 8.5,39.88 3.82,33.52 3.1,26 h -3 C 1.12,38.32 11.42,48 24,48 l 1.32,-0.06 -7.62,-7.62 z m 1.78,-13.04 c -0.38,0 -0.74,-0.06 -1.04,-0.16 -0.32,-0.12 -0.58,-0.26 -0.8,-0.48 -0.22,-0.2 -0.4,-0.44 -0.52,-0.74 -0.12,-0.28 -0.18,-0.6 -0.18,-0.94 h -2.6 c 0,0.72 0.14,1.36 0.42,1.9 0.28,0.54 0.66,1 1.12,1.38 0.48,0.36 1.02,0.64 1.64,0.82 0.6,0.2 1.24,0.3 1.92,0.3 0.74,0 1.44,-0.1 2.06,-0.3 0.64,-0.2 1.2,-0.5 1.66,-0.88 0.46,-0.38 0.84,-0.86 1.1,-1.44 0.26,-0.58 0.4,-1.22 0.4,-1.94 0,-0.38 -0.04,-0.76 -0.14,-1.12 -0.1,-0.36 -0.24,-0.7 -0.46,-1.02 -0.2,-0.32 -0.48,-0.6 -0.8,-0.86 -0.34,-0.26 -0.74,-0.46 -1.22,-0.62 0.4,-0.18 0.74,-0.4 1.04,-0.66 0.3,-0.26 0.54,-0.54 0.74,-0.84 0.2,-0.3 0.34,-0.6 0.44,-0.92 0.1,-0.32 0.14,-0.64 0.14,-0.96 0,-0.72 -0.12,-1.36 -0.36,-1.92 C 21.14,17.96 20.8,17.5 20.36,17.14 19.96,16.76 19.42,16.48 18.82,16.28 18.2,16.1 17.52,16 16.78,16 c -0.72,0 -1.38,0.1 -2,0.32 -0.6,0.22 -1.14,0.52 -1.58,0.9 -0.42,0.38 -0.76,0.82 -1.02,1.34 -0.24,0.52 -0.36,1.08 -0.36,1.7 h 2.6 c 0,-0.34 0.06,-0.64 0.18,-0.9 0.12,-0.26 0.28,-0.5 0.5,-0.68 0.22,-0.18 0.46,-0.34 0.76,-0.44 0.3,-0.1 0.6,-0.16 0.96,-0.16 0.8,0 1.4,0.2 1.78,0.62 0.38,0.4 0.58,0.98 0.58,1.72 0,0.36 -0.06,0.68 -0.16,0.98 -0.1,0.3 -0.28,0.54 -0.5,0.74 -0.22,0.2 -0.5,0.36 -0.82,0.48 -0.32,0.12 -0.72,0.18 -1.16,0.18 H 15 v 2.06 h 1.54 c 0.44,0 0.84,0.04 1.2,0.14 0.36,0.1 0.66,0.26 0.9,0.46 0.24,0.22 0.44,0.48 0.58,0.8 0.14,0.32 0.2,0.7 0.2,1.14 0,0.82 -0.24,1.44 -0.7,1.86 -0.46,0.46 -1.1,0.66 -1.9,0.66 z M 33.92,18.08 C 33.28,17.42 32.52,16.9 31.64,16.54 30.78,16.18 29.8,16 28.72,16 H 24 v 16 h 4.6 c 1.1,0 2.12,-0.18 3.02,-0.54 0.9,-0.36 1.68,-0.86 2.32,-1.52 0.64,-0.66 1.14,-1.46 1.48,-2.38 0.34,-0.94 0.52,-1.98 0.52,-3.14 v -0.8 c 0,-1.16 -0.18,-2.2 -0.52,-3.14 -0.36,-0.94 -0.86,-1.74 -1.5,-2.4 z m -0.78,6.32 c 0,0.84 -0.1,1.58 -0.28,2.26 -0.2,0.66 -0.48,1.24 -0.86,1.7 -0.38,0.46 -0.86,0.82 -1.42,1.06 -0.58,0.24 -1.24,0.36 -1.98,0.36 H 26.78 V 18.24 h 1.94 c 1.44,0 2.54,0.46 3.28,1.38 0.76,0.92 1.14,2.24 1.14,3.98 z M 24,0 22.68,0.06 30.3,7.68 32.96,5.02 c 6.54,3.1 11.22,9.44 11.92,16.96 h 3 C 46.88,9.68 36.58,0 24,0 Z"
     id="path4"
     inkscape:connector-curvature="0"
     style="stroke-width:2;fill:#333333;fill-opacity:1" />
</svg>
